<svg width="80" height="80" viewBox="0 0 80 80" fill="none" xmlns="http://www.w3.org/2000/svg">
<rect x="1.5" y="1.5" width="77" height="77" rx="38.5" fill="#E3E1EA" stroke="white" stroke-width="3"/>
<path d="M47.4854 21.3066C45.585 19.2549 42.9307 18.125 40.001 18.125C37.0557 18.125 34.3926 19.248 32.501 21.2871C30.5889 23.3486 29.6573 26.1504 29.876 29.1758C30.3096 35.1445 34.8516 40 40.001 40C45.1505 40 49.6846 35.1455 50.1251 29.1777C50.3467 26.1797 49.4092 23.3838 47.4854 21.3066ZM57.1885 61.875H22.8135C22.3636 61.8808 21.918 61.7863 21.5092 61.5983C21.1004 61.4103 20.7386 61.1335 20.4503 60.7881C19.8155 60.0293 19.5596 58.9931 19.7491 57.9453C20.5733 53.373 23.1456 49.5322 27.1885 46.8359C30.7803 44.4424 35.3301 43.125 40.001 43.125C44.6719 43.125 49.2217 44.4433 52.8135 46.8359C56.8565 49.5312 59.4288 53.3721 60.253 57.9443C60.4424 58.9922 60.1866 60.0283 59.5518 60.7871C59.2635 61.1327 58.9018 61.4097 58.493 61.5978C58.0842 61.786 57.6385 61.8807 57.1885 61.875Z" fill="white"/>
</svg>
