<svg width="290" height="76.702" viewBox="0 0 248 76.702" xmlns="http://www.w3.org/2000/svg"><g id="svgGroup" stroke-linecap="round" fill-rule="evenodd" font-size="9pt" stroke="#fff" stroke-width="0.25mm" fill="#fff" style="stroke:#fff;stroke-width:0.25mm;fill:#fff"><path d="M 65.1 75.601 L 44.7 75.601 L 15.8 43.801 L 15.8 75.601 L 0 75.601 L 0 4.601 L 15.8 4.601 L 15.8 34.301 L 39.9 4.601 L 59.4 4.601 L 31.4 38.701 L 65.1 75.601 Z M 203.8 75.601 L 185.5 75.601 L 166.9 53.301 L 166.9 75.601 L 151.8 75.601 L 151.8 0.601 L 166.9 0.601 L 166.9 43.501 L 181.5 25.601 L 199.4 25.601 L 181 48.201 L 203.8 75.601 Z M 248 75.601 L 205.7 75.601 L 205.7 63.801 L 227.6 39.201 L 206 39.201 L 206 25.601 L 247.2 25.601 L 247.2 37.501 L 225.3 62.001 L 248 62.001 L 248 75.601 Z M 143.7 39.101 L 130.5 46.101 A 15.208 15.208 0 0 0 128.197 42.329 A 10.492 10.492 0 0 0 119.8 38.601 A 11.134 11.134 0 0 0 114.751 39.737 A 11.265 11.265 0 0 0 111.7 42.001 Q 108.4 45.401 108.4 50.601 Q 108.4 55.801 111.7 59.201 A 10.816 10.816 0 0 0 119.501 62.597 A 13.358 13.358 0 0 0 119.8 62.601 A 11.236 11.236 0 0 0 125.046 61.41 Q 127.458 60.16 129.153 57.598 A 16.733 16.733 0 0 0 130.5 55.101 L 143.7 62.101 Q 140.5 68.701 134 72.701 Q 127.5 76.701 119.8 76.701 A 27.971 27.971 0 0 1 109.199 74.741 A 26.012 26.012 0 0 1 100.9 69.301 A 24.699 24.699 0 0 1 93.208 51.325 A 32.623 32.623 0 0 1 93.2 50.601 A 27.132 27.132 0 0 1 94.892 40.864 A 24.375 24.375 0 0 1 100.9 31.901 A 26.223 26.223 0 0 1 119.713 24.501 A 33.875 33.875 0 0 1 119.8 24.501 Q 127.5 24.501 134 28.501 Q 140.5 32.501 143.7 39.101 Z M 83.8 75.601 L 68.7 75.601 L 68.7 25.601 L 83.8 25.601 L 83.8 75.601 Z M 69.622 16.072 A 9.105 9.105 0 0 0 76.2 18.801 A 11.548 11.548 0 0 0 76.325 18.8 A 9.159 9.159 0 0 0 82.95 16.051 A 10.892 10.892 0 0 0 83.035 15.964 A 9.049 9.049 0 0 0 85.7 9.401 A 10.983 10.983 0 0 0 85.699 9.279 A 9.047 9.047 0 0 0 82.95 2.751 Q 80.2 0.001 76.2 0.001 A 9.194 9.194 0 0 0 72.909 0.585 A 9.546 9.546 0 0 0 69.6 2.751 A 10.974 10.974 0 0 0 69.492 2.859 A 8.963 8.963 0 0 0 66.8 9.401 A 10.773 10.773 0 0 0 66.801 9.553 A 8.966 8.966 0 0 0 69.6 16.051 A 11.634 11.634 0 0 0 69.622 16.072 Z" vector-effect="non-scaling-stroke"/></g></svg>